# Blender v2.92.0 OBJ File: ''
# www.blender.org
v -11.590913 -3.000000 0.000000
v 11.590913 -3.000000 0.000000
v -11.590913 3.000000 0.000000
v 11.590913 3.000000 0.000000
v -11.590913 6.448917 0.367212
v 11.590913 6.448917 0.367212
v -11.590913 9.151594 1.556977
v 11.590913 9.151594 1.556977
v -11.590913 11.398930 3.069888
v 11.590913 11.398930 3.069888
v -11.590913 12.985282 5.052831
v 11.590913 12.985282 5.052831
v -11.590913 15.513296 9.987026
v 11.590913 15.513296 9.987026
v -11.590913 -18.208570 0.000000
v 11.590913 -18.208570 0.000000
vn 0.0000 0.0000 1.0000
vn 0.0000 -0.0530 0.9986
vn 0.0000 -0.2574 0.9663
vn 0.0000 -0.4826 0.8758
vn 0.0000 -0.6774 0.7356
vn 0.0000 -0.8397 0.5431
vn 0.0000 -0.8900 0.4560
s 1
f 1//1 2//1 4//2 3//2
f 3//2 4//2 6//3 5//3
f 5//3 6//3 8//4 7//4
f 7//4 8//4 10//5 9//5
f 9//5 10//5 12//6 11//6
f 11//6 12//6 14//7 13//7
f 2//1 1//1 15//1 16//1
